# This file uses centimeters as units for non-parametric coordinates.

mtllib Coin.mtl
g default
v 0.000000 2.179459 -0.000000
v 0.031740 2.195076 -0.025521
v 0.031740 2.195076 0.025521
v 0.032961 2.150890 -0.000000
v 0.485997 2.693081 -0.866026
v 0.485997 2.693081 0.866025
v 0.527434 1.193653 0.000000
v 0.334723 2.865744 -1.172212
v 0.334723 2.865744 1.172212
v 0.390810 0.836189 0.000000
v -0.020718 2.929173 -1.299038
v -0.020718 2.929173 1.299038
v 0.041437 0.680032 0.000000
v -0.372114 2.846211 -1.172212
v -0.372114 2.846211 1.172212
v -0.316027 0.816656 0.000000
v -0.513621 2.665456 -0.866026
v -0.513621 2.665456 0.866025
v -0.472185 1.166029 0.000000
v -0.362347 2.492792 -0.559839
v -0.362347 2.492792 0.559839
v -0.335561 1.523493 0.000000
vt 0.500000 1.000000
vt 0.000000 0.875000
vt 0.333333 0.875000
vt 0.666667 0.875000
vt 1.000000 0.875000
vt 0.000000 0.750000
vt 0.333333 0.750000
vt 0.666667 0.750000
vt 1.000000 0.750000
vt 0.000000 0.625000
vt 0.333333 0.625000
vt 0.666667 0.625000
vt 1.000000 0.625000
vt 0.000000 0.500000
vt 0.333333 0.500000
vt 0.666667 0.500000
vt 1.000000 0.500000
vt 0.000000 0.375000
vt 0.333333 0.375000
vt 0.666667 0.375000
vt 1.000000 0.375000
vt 0.000000 0.250000
vt 0.333333 0.250000
vt 0.666667 0.250000
vt 1.000000 0.250000
vt 0.000000 0.125000
vt 0.333333 0.125000
vt 0.666667 0.125000
vt 1.000000 0.125000
vt 0.500000 0.000000
vn 0.441483 -0.897269 0.000000
vn 0.441483 -0.897269 0.000000
vn 0.441483 -0.897269 0.000000
vn 0.403812 0.465894 -0.787323
vn 0.403812 0.465894 -0.787323
vn 0.403812 0.465894 -0.787323
vn 0.403812 0.465894 0.787323
vn 0.403812 0.465894 0.787323
vn 0.403812 0.465894 0.787323
vn 0.738813 -0.673911 0.000000
vn 0.738813 -0.673911 0.000000
vn 0.738813 -0.673911 0.000000
vn 0.738813 -0.673911 0.000000
vn 0.710053 0.366786 -0.601076
vn 0.710053 0.366786 -0.601076
vn 0.710053 0.366786 -0.601076
vn 0.710053 0.366786 -0.601076
vn 0.710053 0.366786 0.601076
vn 0.710053 0.366786 0.601076
vn 0.710053 0.366786 0.601076
vn 0.710053 0.366786 0.601076
vn 0.752159 0.658982 -0.000000
vn 0.752159 0.658982 -0.000000
vn 0.752159 0.658982 -0.000000
vn 0.752159 0.658982 -0.000000
vn 0.778594 -0.297581 0.552483
vn 0.778594 -0.297581 0.552483
vn 0.778594 -0.297581 0.552483
vn 0.778594 -0.297581 0.552483
vn 0.778594 -0.297581 -0.552483
vn 0.778594 -0.297581 -0.552483
vn 0.778594 -0.297581 -0.552483
vn 0.778594 -0.297581 -0.552483
vn 0.175675 0.984448 -0.000000
vn 0.175675 0.984448 -0.000000
vn 0.175675 0.984448 -0.000000
vn 0.175675 0.984448 -0.000000
vn 0.216251 -0.483821 0.848029
vn 0.216251 -0.483821 0.848029
vn 0.216251 -0.483820 0.848029
vn 0.216251 -0.483820 0.848029
vn 0.216251 -0.483821 -0.848029
vn 0.216251 -0.483821 -0.848029
vn 0.216251 -0.483821 -0.848029
vn 0.216251 -0.483821 -0.848029
vn -0.229776 0.973244 -0.000000
vn -0.229776 0.973244 -0.000000
vn -0.229776 0.973244 -0.000000
vn -0.229776 0.973244 -0.000000
vn -0.189201 -0.495025 0.848029
vn -0.189201 -0.495025 0.848029
vn -0.189200 -0.495025 0.848029
vn -0.189200 -0.495025 0.848029
vn -0.189201 -0.495025 -0.848029
vn -0.189201 -0.495025 -0.848029
vn -0.189201 -0.495025 -0.848029
vn -0.189201 -0.495025 -0.848029
vn -0.787405 0.616435 -0.000000
vn -0.787405 0.616435 -0.000000
vn -0.787405 0.616435 -0.000000
vn -0.787405 0.616435 -0.000000
vn -0.760971 -0.340127 0.552483
vn -0.760971 -0.340127 0.552483
vn -0.760971 -0.340127 0.552483
vn -0.760971 -0.340127 0.552483
vn -0.760971 -0.340127 -0.552483
vn -0.760971 -0.340127 -0.552483
vn -0.760971 -0.340127 -0.552483
vn -0.760971 -0.340127 -0.552483
vn -0.752159 -0.658981 0.000000
vn -0.752159 -0.658981 0.000000
vn -0.752159 -0.658982 0.000000
vn -0.752159 -0.658981 0.000000
vn -0.778594 0.297581 -0.552483
vn -0.778594 0.297581 -0.552483
vn -0.778594 0.297581 -0.552483
vn -0.778594 0.297581 -0.552483
vn -0.778594 0.297581 0.552482
vn -0.778594 0.297581 0.552483
vn -0.778594 0.297581 0.552483
vn -0.778594 0.297581 0.552483
vn -0.654094 -0.756413 0.000000
vn -0.654094 -0.756413 0.000000
vn -0.654094 -0.756413 0.000000
vn -0.684677 0.350247 -0.639175
vn -0.684677 0.350247 -0.639175
vn -0.684677 0.350247 -0.639175
vn -0.684677 0.350247 0.639175
vn -0.684677 0.350247 0.639175
vn -0.684677 0.350247 0.639175
s off
g pTorus1
usemtl lambert3SG
f 1/1/1 2/2/2 3/3/3
f 1/1/4 3/3/5 4/4/6
f 1/1/7 4/4/8 2/5/9
f 3/3/10 2/2/11 5/6/12 6/7/13
f 4/4/14 3/3/15 6/7/16 7/8/17
f 2/5/18 4/4/19 7/8/20 5/9/21
usemtl lambert2SG
f 6/7/22 5/6/23 8/10/24 9/11/25
f 7/8/26 6/7/27 9/11/28 10/12/29
f 5/9/30 7/8/31 10/12/32 8/13/33
f 9/11/34 8/10/35 11/14/36 12/15/37
f 10/12/38 9/11/39 12/15/40 13/16/41
f 8/13/42 10/12/43 13/16/44 11/17/45
f 12/15/46 11/14/47 14/18/48 15/19/49
f 13/16/50 12/15/51 15/19/52 16/20/53
f 11/17/54 13/16/55 16/20/56 14/21/57
f 15/19/58 14/18/59 17/22/60 18/23/61
f 16/20/62 15/19/63 18/23/64 19/24/65
f 14/21/66 16/20/67 19/24/68 17/25/69
usemtl lambert3SG
f 18/23/70 17/22/71 20/26/72 21/27/73
f 19/24/74 18/23/75 21/27/76 22/28/77
f 17/25/78 19/24/79 22/28/80 20/29/81
f 21/27/82 20/26/83 1/30/84
f 22/28/85 21/27/86 1/30/87
f 20/29/88 22/28/89 1/30/90
